<svg width="20" height="17" viewBox="0 0 20 17" fill="none" xmlns="http://www.w3.org/2000/svg">
<path fill-rule="evenodd" clip-rule="evenodd" d="M3.22258 0H10.1159C11.7506 0 13.0701 1.42375 13.0701 3.1875V4.25H11.1006V2.125H2.23782V9.5625H7.1616V14.875H5.19209L3.22258 17H2.23782V15.9375L3.22258 14.875C1.58788 14.875 0.268311 13.4513 0.268311 11.6875V3.1875C0.268311 1.42375 1.58788 0 3.22258 0ZM4.20733 11.6876C4.20733 11.1032 3.76419 10.6251 3.22258 10.6251C2.68096 10.6251 2.23782 11.1032 2.23782 11.6876C2.23782 12.272 2.68096 12.7501 3.22258 12.7501C3.76419 12.7501 4.20733 12.272 4.20733 11.6876ZM18.555 6.01383C18.4171 5.58883 18.0429 5.31258 17.5998 5.31258H10.5194C10.0664 5.31258 9.70205 5.58883 9.55433 6.01383L8.15598 10.3807V16.2351C8.15598 16.6388 8.46125 17.0001 8.83546 17.0001H9.44601C9.82022 17.0001 10.1156 16.5963 10.1156 16.1926V14.8751H17.9937V16.1926C17.9937 16.5963 18.299 17.0001 18.6732 17.0001H19.2739C19.6481 17.0001 19.9534 16.6388 19.9534 16.2351L19.9632 14.7795V10.3807L18.555 6.01383ZM17.6009 6.37505H10.5205L9.50616 9.56255H18.6152L17.6009 6.37505ZM10.1159 12.7501C9.57425 12.7501 9.13111 12.272 9.13111 11.6876C9.13111 11.1032 9.57425 10.6251 10.1159 10.6251C10.6575 10.6251 11.1006 11.1032 11.1006 11.6876C11.1006 12.272 10.6575 12.7501 10.1159 12.7501ZM17.0092 11.6876C17.0092 12.272 17.4523 12.7501 17.9939 12.7501C18.5355 12.7501 18.9787 12.272 18.9787 11.6876C18.9787 11.1032 18.5355 10.6251 17.9939 10.6251C17.4523 10.6251 17.0092 11.1032 17.0092 11.6876Z" fill="#3BAA90"/>
</svg>
