<svg width="23" height="22" viewBox="0 0 23 22" fill="none" xmlns="http://www.w3.org/2000/svg">
<g clip-path="url(#clip0_2911_8903)">
<path d="M13.6695 19.1594V19.7937C13.6695 20.2984 13.2944 20.7182 12.8064 20.7897L12.6482 21.3659C12.5623 21.6785 12.2776 21.8974 11.9477 21.8974H10.3795C10.0496 21.8974 9.76489 21.6785 9.67903 21.3659L9.52537 20.7897C9.03277 20.7138 8.65768 20.2984 8.65768 19.7892V19.1549C8.65768 18.8155 8.93335 18.543 9.27681 18.543H13.0504C13.3939 18.5475 13.6695 18.8199 13.6695 19.1594ZM16.5754 10.6104C16.5754 12.0531 15.997 13.3618 15.0569 14.3221C14.3429 15.0546 13.8819 15.9881 13.7283 16.9842C13.6605 17.413 13.2854 17.7301 12.8425 17.7301H9.4847C9.04633 17.7301 8.66671 17.4174 8.60345 16.9887C8.44527 15.9926 7.97979 15.0457 7.26574 14.3177C6.34382 13.3707 5.76987 12.0844 5.75631 10.6685C5.72468 7.69376 8.11988 5.28628 11.1297 5.26395C14.135 5.24162 16.5754 7.64462 16.5754 10.6104ZM11.776 7.37216C11.776 7.04164 11.5048 6.76918 11.1659 6.76918C9.0147 6.76918 7.26123 8.49774 7.26123 10.6283C7.26123 10.9588 7.53238 11.2313 7.87133 11.2313C8.20575 11.2313 8.48143 10.9633 8.48143 10.6283C8.48143 9.16325 9.68807 7.97515 11.1659 7.97515C11.5048 7.97515 11.776 7.70716 11.776 7.37216ZM11.1659 3.50859C11.5003 3.50859 11.776 3.2406 11.776 2.90561V0.792926C11.776 0.462401 11.5048 0.189941 11.1659 0.189941C10.8269 0.189941 10.5558 0.457935 10.5558 0.792926V2.90561C10.5558 3.2406 10.8314 3.50859 11.1659 3.50859ZM3.98476 10.606C3.98476 10.2754 3.71361 10.003 3.37466 10.003H1.23705C0.902628 10.003 0.626953 10.271 0.626953 10.606C0.626953 10.9365 0.898109 11.2089 1.23705 11.2089H3.37466C3.71361 11.2089 3.98476 10.9409 3.98476 10.606ZM21.0947 10.003H18.9571C18.6226 10.003 18.347 10.271 18.347 10.606C18.347 10.9365 18.6181 11.2089 18.9571 11.2089H21.0947C21.4291 11.2089 21.7048 10.9409 21.7048 10.606C21.7048 10.2754 21.4336 10.003 21.0947 10.003ZM5.22756 15.6264L3.71361 17.1227C3.47409 17.3594 3.47409 17.739 3.71361 17.9758C3.83111 18.0919 3.98928 18.15 4.14294 18.15C4.29659 18.15 4.45477 18.0919 4.57227 17.9758L6.08622 16.4795C6.32574 16.2427 6.32574 15.8631 6.08622 15.6264C5.85122 15.3896 5.46256 15.3896 5.22756 15.6264ZM16.6748 5.7642C16.8285 5.7642 16.9867 5.70614 17.1042 5.59001L18.6181 4.09371C18.8576 3.85698 18.8576 3.47733 18.6181 3.2406C18.3786 3.00387 17.9945 3.00387 17.7549 3.2406L16.241 4.7369C16.0015 4.97362 16.0015 5.35328 16.241 5.59001C16.363 5.70614 16.5167 5.7642 16.6748 5.7642ZM5.22756 5.58554C5.34506 5.70167 5.50323 5.75974 5.65689 5.75974C5.81054 5.75974 5.96872 5.70167 6.08622 5.58554C6.32574 5.34881 6.32574 4.96916 6.08622 4.73243L4.57227 3.23613C4.33275 2.9994 3.94861 2.9994 3.70909 3.23613C3.46957 3.47286 3.46957 3.85252 3.70909 4.08924L5.22756 5.58554ZM17.1042 15.6264C16.8647 15.3896 16.4805 15.3896 16.241 15.6264C16.0015 15.8631 16.0015 16.2427 16.241 16.4795L17.7549 17.9758C17.8724 18.0919 18.0306 18.15 18.1843 18.15C18.3379 18.15 18.4961 18.0919 18.6136 17.9758C18.8531 17.739 18.8531 17.3594 18.6136 17.1227L17.1042 15.6264Z" fill="#3BAA90"/>
</g>
<defs>
<clipPath id="clip0_2911_8903">
<rect width="21.9636" height="21.7075" fill="white" transform="translate(0.185547 0.189941)"/>
</clipPath>
</defs>
</svg>
