<svg width="33" height="32" viewBox="0 0 33 32" fill="none" xmlns="http://www.w3.org/2000/svg">
<path d="M16.5 12C14.332 12 12.5 13.832 12.5 16C12.5 18.168 14.332 20 16.5 20C18.668 20 20.5 18.168 20.5 16C20.5 13.832 18.668 12 16.5 12Z" fill="#98A2B3"/>
<path d="M27.166 6.66651H23.718L20.1087 3.05717C19.9851 2.93312 19.8382 2.83473 19.6764 2.76768C19.5146 2.70064 19.3411 2.66625 19.166 2.66651H13.8327C13.6576 2.66625 13.4841 2.70064 13.3223 2.76768C13.1605 2.83473 13.0136 2.93312 12.89 3.05717L9.28068 6.66651H5.83268C4.36202 6.66651 3.16602 7.86251 3.16602 9.33317V23.9998C3.16602 25.4705 4.36202 26.6665 5.83268 26.6665H27.166C28.6367 26.6665 29.8327 25.4705 29.8327 23.9998V9.33317C29.8327 7.86251 28.6367 6.66651 27.166 6.66651ZM16.4993 22.6665C12.886 22.6665 9.83268 19.6132 9.83268 15.9998C9.83268 12.3865 12.886 9.33317 16.4993 9.33317C20.1127 9.33317 23.166 12.3865 23.166 15.9998C23.166 19.6132 20.1127 22.6665 16.4993 22.6665Z" fill="#98A2B3"/>
</svg>
