<svg width="62" height="63" viewBox="0 0 62 63" fill="none" xmlns="http://www.w3.org/2000/svg">
<rect x="4.5" y="5" width="53" height="53" rx="26.5" fill="#FEF0C7"/>
<rect x="4.5" y="5" width="53" height="53" rx="26.5" stroke="#FFFAEB" stroke-width="8.83333"/>
<path d="M31.0002 27.0833V31.5M31.0002 35.9166H31.0113M29.1121 21.4079L19.7598 37.0208C19.567 37.3547 19.465 37.7333 19.4639 38.1189C19.4628 38.5045 19.5627 38.8837 19.7537 39.2187C19.9446 39.5537 20.2199 39.8328 20.5523 40.0284C20.8846 40.2239 21.2624 40.3291 21.6479 40.3333H40.3525C40.7381 40.3291 41.1158 40.2239 41.4482 40.0284C41.7805 39.8328 42.0558 39.5537 42.2468 39.2187C42.4377 38.8837 42.5376 38.5045 42.5366 38.1189C42.5355 37.7333 42.4335 37.3547 42.2406 37.0208L32.8883 21.4079C32.6915 21.0834 32.4144 20.8151 32.0836 20.6289C31.7529 20.4427 31.3798 20.3448 31.0002 20.3448C30.6207 20.3448 30.2475 20.4427 29.9168 20.6289C29.5861 20.8151 29.3089 21.0834 29.1121 21.4079Z" stroke="#DC6803" stroke-width="2.20833" stroke-linecap="round" stroke-linejoin="round"/>
</svg>
