<svg width="22" height="22" viewBox="0 0 22 22" fill="none" xmlns="http://www.w3.org/2000/svg">
<path d="M14.4852 15.5629C15.2232 14.6204 15.0953 13.2468 14.1126 12.4759C13.1701 11.738 11.7636 11.906 11.0256 12.8486C10.2876 13.7911 10.4155 15.1647 11.3982 15.9356C12.3408 16.6662 13.7473 16.4982 14.4852 15.5629ZM11.822 14.5546C11.5261 14.3172 11.4421 13.9519 11.6357 13.5536L11.3398 13.3162L11.6028 12.9764L11.8658 13.181C11.9864 13.0276 12.2056 12.8997 12.3663 12.7828L12.655 13.1883C12.56 13.2322 12.3992 13.3564 12.2239 13.5792C12.0814 13.7655 12.0631 13.9372 12.1727 14.0286C12.2823 14.1126 12.454 14.0615 12.7682 13.8934C13.2102 13.6377 13.5135 13.561 13.813 13.7984C14.0505 14.0432 14.0943 14.4414 13.9336 14.8067L14.2295 15.0442L13.9665 15.3839L13.7034 15.1794C13.5829 15.3328 13.2724 15.5703 13.1518 15.6543L12.8632 15.2488C13.0239 15.1976 13.2797 15.0296 13.4221 14.8433C13.6011 14.6131 13.6085 14.445 13.466 14.3245C13.3564 14.2405 13.2212 14.2478 12.8961 14.4268C12.5088 14.6715 12.1216 14.7921 11.822 14.5546ZM16.5311 6.81702L15.2488 8.26006L13.8678 7.18234L10.4411 11.5772C10.3717 11.5334 10.1707 11.4421 10.1525 11.4165C9.42181 11.0767 8.43908 11.1096 7.72669 11.4749L0.310547 15.6141V21.1123L3.59484 19.5085C5.07076 20.2026 6.75857 20.0272 8.11759 19.187L11.3252 21.6895L12.2823 20.4583L13.0385 21.1269L21.6895 11.4128L16.5311 6.81702ZM12.0704 19.7459C11.4494 19.4245 10.6785 19.5267 10.1707 20.009L7.61709 18.007C7.05814 18.4563 6.37863 18.6938 5.68451 18.6938C5.37033 18.6938 5.06345 18.6427 4.76023 18.5513C4.60679 18.5002 4.52277 18.3394 4.56661 18.186C4.61775 18.0326 4.7785 17.9485 4.93194 17.9924C5.68816 18.2298 6.51015 18.0947 7.14582 17.6344C7.30656 17.5138 7.47827 17.3713 7.65362 17.1777L8.43542 16.2534L10.6931 18.0253C11.084 18.2956 11.5407 18.2298 11.7964 17.923C12.0668 17.5321 12.001 17.0644 11.6941 16.8197L7.63901 13.5536C7.51845 13.4587 7.50384 13.2833 7.59517 13.1627C7.69016 13.0422 7.86551 13.0276 7.98607 13.1189L9.23184 14.1199L13.1555 9.07474C13.7582 9.38892 14.4962 9.29393 14.9967 8.84458L17.364 10.6858C17.0425 11.3069 17.1521 12.0668 17.6344 12.5782L12.0704 19.7459ZM13.3929 19.0262L19.3149 11.4238L15.8954 8.76056C16.4397 8.99802 17.0827 8.9213 17.5576 8.54867L19.7971 10.5434C19.4391 11.1388 19.4902 11.9097 19.9396 12.4431L13.908 19.2199C13.7473 19.1358 13.5792 19.0664 13.3929 19.0262Z" fill="#3BAA90"/>
</svg>
