<svg width="16" height="16" viewBox="0 0 16 16" fill="none" xmlns="http://www.w3.org/2000/svg">
<g clip-path="url(#clip0_604_125449)">
<path d="M13.9698 12.1454H2.03014C1.52227 12.1443 1.03552 11.942 0.676447 11.5829C0.317371 11.2237 0.115224 10.7369 0.114258 10.229V2.45074C0.115345 1.94295 0.317546 1.45626 0.676608 1.0972C1.03567 0.738139 1.52235 0.535938 2.03014 0.534851H13.9698C14.4776 0.535938 14.9643 0.738139 15.3233 1.0972C15.6824 1.45626 15.8846 1.94295 15.8857 2.45074V10.229C15.8847 10.7369 15.6826 11.2237 15.3235 11.5829C14.9644 11.942 14.4777 12.1443 13.9698 12.1454ZM2.03014 1.67771C1.8252 1.67795 1.62872 1.75947 1.4838 1.90439C1.33888 2.04931 1.25736 2.24579 1.25712 2.45074V10.229C1.25724 10.434 1.3387 10.6306 1.48364 10.7757C1.62857 10.9207 1.82512 11.0023 2.03014 11.0025H13.9698C14.1748 11.0021 14.3713 10.9205 14.5162 10.7755C14.6611 10.6305 14.7426 10.434 14.7428 10.229V2.45074C14.7426 2.24579 14.6611 2.04931 14.5161 1.90439C14.3712 1.75947 14.1747 1.67795 13.9698 1.67771H2.03014Z" fill="#3BAA90"/>
<path d="M9.41713 15.2955C9.26558 15.2955 9.12023 15.2353 9.01307 15.1282C8.90591 15.021 8.8457 14.8757 8.8457 14.7241V11.5739C8.8457 11.4989 8.86048 11.4246 8.8892 11.3553C8.91792 11.2859 8.96001 11.2229 9.01307 11.1699C9.06613 11.1168 9.12913 11.0747 9.19845 11.046C9.26778 11.0173 9.34209 11.0025 9.41713 11.0025C9.49217 11.0025 9.56648 11.0173 9.63581 11.046C9.70514 11.0747 9.76813 11.1168 9.82119 11.1699C9.87425 11.2229 9.91635 11.2859 9.94506 11.3553C9.97378 11.4246 9.98856 11.4989 9.98856 11.5739V14.7241C9.98862 14.7992 9.97388 14.8735 9.94519 14.9429C9.91649 15.0122 9.8744 15.0752 9.82133 15.1283C9.76825 15.1814 9.70524 15.2235 9.63588 15.2522C9.56652 15.2809 9.49219 15.2956 9.41713 15.2955Z" fill="#3BAA90"/>
<path d="M7.04677 15.2955C6.89522 15.2955 6.74987 15.2353 6.64271 15.1282C6.53555 15.021 6.47534 14.8757 6.47534 14.7241V11.5739C6.47534 11.4224 6.53555 11.277 6.64271 11.1699C6.74987 11.0627 6.89522 11.0025 7.04677 11.0025C7.19832 11.0025 7.34367 11.0627 7.45083 11.1699C7.558 11.277 7.6182 11.4224 7.6182 11.5739V14.7241C7.61826 14.7992 7.60352 14.8735 7.57482 14.9429C7.54613 15.0122 7.50404 15.0752 7.45097 15.1283C7.39789 15.1814 7.33487 15.2235 7.26552 15.2522C7.19616 15.2809 7.12183 15.2956 7.04677 15.2955Z" fill="#3BAA90"/>
<path d="M11.6742 15.4651H4.78823C4.63667 15.4651 4.49133 15.4049 4.38416 15.2978C4.277 15.1906 4.2168 15.0452 4.2168 14.8937C4.2168 14.7421 4.277 14.5968 4.38416 14.4896C4.49133 14.3825 4.63667 14.3223 4.78823 14.3223H11.6742C11.8257 14.3223 11.9711 14.3825 12.0782 14.4896C12.1854 14.5968 12.2456 14.7421 12.2456 14.8937C12.2456 15.0452 12.1854 15.1906 12.0782 15.2978C11.9711 15.4049 11.8257 15.4651 11.6742 15.4651Z" fill="#3BAA90"/>
</g>
<defs>
<clipPath id="clip0_604_125449">
<rect width="16" height="16" fill="white"/>
</clipPath>
</defs>
</svg>
