<svg width="33" height="32" viewBox="0 0 33 32" fill="none" xmlns="http://www.w3.org/2000/svg">
<path d="M27.1667 2.6665H11.1667C9.696 2.6665 8.5 3.8625 8.5 5.33317V21.3332C8.5 22.8038 9.696 23.9998 11.1667 23.9998H27.1667C28.6373 23.9998 29.8333 22.8038 29.8333 21.3332V5.33317C29.8333 3.8625 28.6373 2.6665 27.1667 2.6665ZM11.1667 21.3332V5.33317H27.1667L27.1693 21.3332H11.1667Z" fill="#98A2B3"/>
<path d="M5.83268 10.6665H3.16602V26.6665C3.16602 28.1372 4.36202 29.3332 5.83268 29.3332H21.8327V26.6665H5.83268V10.6665Z" fill="#98A2B3"/>
<path d="M16.5 15.9998L15.1667 14.6665L12.5 18.6665H25.8333L20.5 10.6665L16.5 15.9998Z" fill="#98A2B3"/>
</svg>
