<svg width="26" height="26" viewBox="0 0 26 26" fill="none" xmlns="http://www.w3.org/2000/svg">
<path d="M8.80753 17.1519H15.1003C15.2814 17.1519 15.4549 17.08 15.5829 16.952C15.7109 16.824 15.7828 16.6504 15.7828 16.4694L18.1594 7.76751C18.1594 7.67719 18.1415 7.58778 18.1067 7.50444C18.0719 7.4211 18.0209 7.3455 17.9566 7.28201C17.8924 7.21853 17.8162 7.16843 17.7325 7.13461C17.6487 7.10079 17.5591 7.08393 17.4688 7.08501H7.15409C6.97271 7.08501 6.79869 7.15678 6.67005 7.28466C6.54141 7.41254 6.4686 7.58613 6.46753 7.76751L4.43628 16.4694C4.43628 16.6504 4.50819 16.824 4.63618 16.952C4.76417 17.08 4.93777 17.1519 5.11878 17.1519H6.0044" stroke="#3BAA90" stroke-width="1.21875"/>
<path d="M16.9243 17.1519H15.5146L17.5459 10.1278H20.8853C20.9355 10.1277 20.9852 10.1385 21.0308 10.1596C21.0764 10.1806 21.1168 10.2114 21.1493 10.2497L22.6037 12.8091C22.6558 12.8687 22.6847 12.9452 22.685 13.0244L21.3321 17.1519H19.8696" stroke="#3BAA90" stroke-width="1.21875"/>
<path d="M7.43834 19.1221C8.27074 19.1221 8.94553 18.4383 8.94553 17.5946C8.94553 16.751 8.27074 16.0671 7.43834 16.0671C6.60594 16.0671 5.93115 16.751 5.93115 17.5946C5.93115 18.4383 6.60594 19.1221 7.43834 19.1221Z" stroke="#3BAA90" stroke-width="1.21875"/>
<path d="M18.4234 19.1221C19.2558 19.1221 19.9306 18.4383 19.9306 17.5946C19.9306 16.751 19.2558 16.0671 18.4234 16.0671C17.5911 16.0671 16.9163 16.751 16.9163 17.5946C16.9163 18.4383 17.5911 19.1221 18.4234 19.1221Z" stroke="#3BAA90" stroke-width="1.21875"/>
<path d="M9.44539 9.08374H2.79102" stroke="#3BAA90" stroke-width="1.21875" stroke-linecap="round"/>
<path d="M8.13317 11.2125H3.43286" stroke="#3BAA90" stroke-width="1.21875" stroke-linecap="round"/>
<path d="M8.60833 13.6094H1.30396" stroke="#3BAA90" stroke-width="1.21875" stroke-linecap="round"/>
</svg>
