<svg width="17" height="17" viewBox="0 0 17 17" fill="none" xmlns="http://www.w3.org/2000/svg">
<path fill-rule="evenodd" clip-rule="evenodd" d="M8.5836 1.89161C9.49795 0.733113 10.8988 0 12.3584 0C14.9421 0 16.9721 2.19029 16.9721 4.97793C16.9721 8.39632 14.1247 11.1822 9.81056 15.4031L9.79993 15.4135L8.5836 16.6082L7.36726 15.4225L7.33415 15.3901C3.0326 11.1725 0.195068 8.39038 0.195068 4.97793C0.195068 2.19029 2.22509 0 4.80876 0C6.26836 0 7.66925 0.733113 8.5836 1.89161ZM8.58258 14.1645L8.66646 14.074C12.6594 10.1731 15.2934 7.59364 15.2934 4.97796C15.2934 3.1678 14.0351 1.81019 12.3574 1.81019C11.0656 1.81019 9.8073 2.70621 9.3711 3.94617H7.80245C7.35785 2.70621 6.09958 1.81019 4.80774 1.81019C3.13004 1.81019 1.87176 3.1678 1.87176 4.97796C1.87176 7.59364 4.50575 10.1731 8.49869 14.074L8.58258 14.1645Z" fill="#3BAA90"/>
</svg>
