<svg width="21" height="19" viewBox="0 0 21 19" fill="none" xmlns="http://www.w3.org/2000/svg">
<path d="M10.2308 9.17536C10.3481 9.29086 10.5397 9.29086 10.6569 9.17536L14.2051 5.68411C14.6662 5.23087 14.9199 4.62886 14.9199 3.98836C14.9199 3.34786 14.6662 2.74499 14.2051 2.29173C13.2496 1.3511 11.6938 1.3511 10.7383 2.29173C10.5747 2.45186 10.3131 2.45186 10.1503 2.29173C9.67169 1.82186 9.04432 1.58649 8.41608 1.58649C7.78784 1.58649 7.16045 1.82186 6.6827 2.29173C6.22158 2.74497 5.96695 3.34786 5.96695 3.98836C5.96695 4.62886 6.22158 5.23087 6.68184 5.68411L10.2308 9.17536H10.2308ZM14.7931 6.28173L11.2449 9.77298C11.0244 9.98997 10.734 10.0985 10.4443 10.0985C10.1538 10.0985 9.8642 9.98997 9.64282 9.77298L6.0947 6.28173C5.47257 5.66922 5.12958 4.85547 5.12958 3.98836C5.12958 3.12125 5.47257 2.30662 6.0947 1.69411C7.28031 0.527731 9.15633 0.441987 10.4443 1.43774C11.7315 0.441987 13.6066 0.526869 14.7931 1.69411C15.4152 2.30662 15.7582 3.12123 15.7582 3.98836C15.7582 4.85549 15.4152 5.66924 14.7931 6.28173ZM8.50305 11.2317C9.34656 11.2317 10.0325 11.9186 10.0325 12.7621V18.2903C10.0325 18.5222 9.84529 18.7086 9.61429 18.7086C9.38241 18.7086 9.19517 18.5222 9.19517 18.2903V12.7621C9.19517 12.3797 8.88454 12.07 8.50305 12.07H8.13729C8.12591 12.07 8.11279 12.0691 8.0988 12.0682H4.17443C4.0633 12.0682 3.95655 12.0236 3.8778 11.9448L2.01579 10.0828C1.75504 9.82296 1.30091 9.82296 1.04018 10.0828C0.770684 10.3532 0.770684 10.7907 1.0393 11.0593L3.22766 13.2477C3.3598 13.3798 3.53916 13.4489 3.72379 13.4481C3.73078 13.4481 3.73954 13.4481 3.74653 13.449H7.39091C7.6228 13.449 7.81003 13.6362 7.81003 13.8672V18.2903C7.81003 18.5222 7.62278 18.7086 7.39091 18.7086C7.15991 18.7086 6.9718 18.5222 6.9718 18.2903V14.2872H3.73343C3.72555 14.2872 3.71768 14.2863 3.70892 14.2863C3.30555 14.2863 2.92316 14.128 2.63441 13.8401L0.446906 11.6517C-0.148969 11.0567 -0.148969 10.0872 0.446906 9.49223C1.04366 8.89547 2.01315 8.89461 2.60816 9.49048L4.34766 11.23H8.11978C8.13028 11.23 8.14429 11.2309 8.15741 11.2317H8.50303L8.50305 11.2317ZM20.4882 9.4992C21.0771 10.096 21.0744 11.0593 20.4803 11.6517L18.2928 13.8401C18.0049 14.1279 17.6225 14.2863 17.213 14.2863C17.2069 14.2863 17.1999 14.2872 17.1938 14.2872H13.9554V18.2903C13.9554 18.5222 13.7673 18.7086 13.5363 18.7086C13.3053 18.7086 13.1172 18.5222 13.1172 18.2903V13.8672C13.1172 13.6362 13.3053 13.4489 13.5363 13.4489H17.1807C17.1903 13.4481 17.1991 13.4481 17.2078 13.4481C17.3977 13.4481 17.5701 13.3772 17.6996 13.2477L19.8879 11.0593C20.1574 10.7907 20.1574 10.3532 19.8879 10.0837L19.8818 10.0776C19.6123 9.81418 19.1792 9.81594 18.9123 10.0828L17.0494 11.9448C16.9707 12.0236 16.8648 12.0682 16.7537 12.0682H12.8284C12.8144 12.0691 12.8013 12.0699 12.7908 12.0699H12.425C12.0435 12.0699 11.7329 12.3797 11.7329 12.7621V18.2903C11.7329 18.5222 11.5448 18.7086 11.3138 18.7086C11.0819 18.7086 10.8947 18.5222 10.8947 18.2903V12.7621C10.8947 11.9185 11.5816 11.2317 12.4251 11.2317H12.7707C12.7838 11.2308 12.7969 11.2299 12.8083 11.2299H16.5804L18.3191 9.49044C18.915 8.89457 19.8853 8.89545 20.4795 9.49044C20.483 9.49307 20.4856 9.49658 20.4882 9.4992H20.4882Z" fill="#3BAA90"/>
</svg>
