<svg width="20" height="24" viewBox="0 0 20 24" fill="none" xmlns="http://www.w3.org/2000/svg">
<path d="M10.1223 22.8117C10.0432 22.8402 9.95662 22.8402 9.8775 22.8117C8.82667 22.4433 1.33325 19.5183 1.33325 11.1897V3.66268C1.33303 3.56587 1.36523 3.47176 1.42472 3.39538C1.48422 3.319 1.56758 3.26474 1.6615 3.24127L9.89484 1.17968C9.96383 1.16244 10.036 1.16244 10.105 1.17968L18.3383 3.24127C18.4323 3.26474 18.5156 3.319 18.5751 3.39538C18.6346 3.47176 18.6668 3.56587 18.6666 3.66268V11.1897C18.6666 19.6018 11.1743 22.4531 10.1223 22.8128V22.8117Z" stroke="#3BAA90" stroke-width="1.625" stroke-miterlimit="10"/>
<path d="M6.75 10.9166H13.25M10 14.1666V7.66663" stroke="#3BAA90" stroke-width="1.625" stroke-miterlimit="10" stroke-linecap="round"/>
</svg>
