<svg width="34" height="34" viewBox="0 0 34 34" fill="none" xmlns="http://www.w3.org/2000/svg">
<circle opacity="0.15" cx="16.9997" cy="16.7028" r="16.7028" fill="#FEDF89"/>
<path d="M17.209 6.1958C11.461 6.1958 6.80371 10.8562 6.80371 16.6011C6.80371 22.346 11.4641 27.0064 17.209 27.0064C22.957 27.0064 27.6143 22.346 27.6143 16.6011C27.6143 10.8562 22.9539 6.1958 17.209 6.1958ZM17.209 24.6983C12.7446 24.6983 9.11494 21.0686 9.11494 16.6042C9.11494 12.1399 12.7446 8.51019 17.209 8.51019C21.6734 8.51019 25.303 12.1399 25.303 16.6042C25.303 21.0686 21.6702 24.6983 17.209 24.6983Z" fill="#DC6803"/>
<path d="M18.374 11.9724H16.0596V17.0755L19.8695 20.8854L21.5041 19.2507L18.374 16.1206V11.9724Z" fill="#DC6803"/>
</svg>
