<svg width="62" height="63" viewBox="0 0 62 63" fill="none" xmlns="http://www.w3.org/2000/svg">
<rect x="4.5" y="5" width="53" height="53" rx="26.5" fill="#FECDCA"/>
<rect x="4.5" y="5" width="53" height="53" rx="26.5" stroke="#FEF3F2" stroke-width="8.83333"/>
<path fill-rule="evenodd" clip-rule="evenodd" d="M30.9999 45.1666C38.8242 45.1666 45.1666 38.8242 45.1666 30.9999C45.1666 23.1757 38.8242 16.8333 30.9999 16.8333C23.1757 16.8333 16.8333 23.1757 16.8333 30.9999C16.8333 38.8242 23.1757 45.1666 30.9999 45.1666ZM28.8749 38.0705C28.8749 36.8423 29.8085 35.9583 30.9872 35.9583C32.1913 35.9583 33.1249 36.8423 33.1249 38.0705C33.1249 39.2987 32.1913 40.2083 30.9872 40.2083C29.8085 40.2083 28.8749 39.2987 28.8749 38.0705ZM29.8269 22.4999C29.7313 22.5 29.6368 22.5195 29.5489 22.5571C29.461 22.5947 29.3817 22.6497 29.3156 22.7188C29.2496 22.7879 29.1982 22.8696 29.1646 22.9591C29.131 23.0486 29.1158 23.1439 29.12 23.2394L29.5535 33.1561C29.5615 33.3385 29.6397 33.5108 29.7717 33.6369C29.9037 33.7631 30.0793 33.8334 30.2618 33.8333H31.7394C31.922 33.8334 32.0976 33.7631 32.2296 33.6369C32.3616 33.5108 32.4397 33.3385 32.4478 33.1561L32.8798 23.2394C32.884 23.1438 32.8688 23.0483 32.8351 22.9588C32.8014 22.8692 32.7499 22.7874 32.6837 22.7183C32.6175 22.6492 32.538 22.5942 32.45 22.5567C32.3619 22.5191 32.2672 22.4998 32.1715 22.4999H29.8269Z" fill="#F04438"/>
</svg>
