<svg width="18" height="18" viewBox="0 0 18 18" fill="none" xmlns="http://www.w3.org/2000/svg">
<path fill-rule="evenodd" clip-rule="evenodd" d="M8.73877 1.87601C12.2798 1.87601 15.1504 4.74659 15.1504 8.28763C15.1504 9.80133 14.6258 11.1925 13.7486 12.2893L16.3665 14.9079C16.6447 15.1861 16.6447 15.6372 16.3665 15.9154C16.1097 16.1722 15.7056 16.192 15.4262 15.9747L15.359 15.9154L12.7405 13.2975C11.6437 14.1747 10.2525 14.6993 8.73877 14.6993C5.19773 14.6993 2.32715 11.8287 2.32715 8.28763C2.32715 4.74659 5.19773 1.87601 8.73877 1.87601ZM8.73877 3.30072C5.98463 3.30072 3.75196 5.5334 3.75196 8.28754C3.75196 11.0417 5.98463 13.2744 8.73877 13.2744C11.4929 13.2744 13.7256 11.0417 13.7256 8.28754C13.7256 5.5334 11.4929 3.30072 8.73877 3.30072Z" fill="#98A2B3"/>
</svg>
