<svg width="34" height="34" viewBox="0 0 34 34" fill="none" xmlns="http://www.w3.org/2000/svg">
<circle opacity="0.15" cx="16.7028" cy="16.7028" r="16.7028" fill="#A6F4C5"/>
<path d="M16.7837 6.01025C10.8865 6.01025 6.08887 10.8079 6.08887 16.705C6.08887 22.6021 10.8865 27.3998 16.7837 27.3998C22.6808 27.3998 27.4784 22.6021 27.4784 16.705C27.4784 10.8079 22.6808 6.01025 16.7837 6.01025ZM16.7837 25.2609C12.0662 25.2609 8.22782 21.4225 8.22782 16.705C8.22782 11.9876 12.0662 8.14921 16.7837 8.14921C21.5011 8.14921 25.3395 11.9876 25.3395 16.705C25.3395 21.4225 21.5011 25.2609 16.7837 25.2609Z" fill="#039855"/>
<path d="M14.6358 18.4025L12.1771 15.9481L10.667 17.4625L14.638 21.4249L21.8099 14.253L20.2976 12.7407L14.6358 18.4025Z" fill="#039855"/>
</svg>
