<svg width="18" height="18" viewBox="0 0 18 18" fill="none" xmlns="http://www.w3.org/2000/svg">
<path fill-rule="evenodd" clip-rule="evenodd" d="M1.01878 8.98604C0.517826 9.48695 0.517828 10.2992 1.01878 10.8001L7.20079 16.9821C7.7017 17.4831 8.51395 17.4831 9.01487 16.9821L16.9817 9.01536C17.2222 8.7748 17.3574 8.44855 17.3574 8.10835V1.92633C17.3574 1.21788 16.783 0.643555 16.0746 0.643555H9.89256C9.55236 0.643555 9.22611 0.778703 8.98555 1.01927L1.01878 8.98604ZM8.56242 15.6205C8.31132 15.8716 7.90433 15.8716 7.65323 15.6205L2.38041 10.3476C2.12936 10.0966 2.12936 9.68958 2.38041 9.43848L9.70427 2.11462C9.82487 1.99406 9.98835 1.92633 10.1589 1.92633H15.4317C15.7867 1.92633 16.0746 2.21415 16.0746 2.56919V7.84201C16.0746 8.01256 16.0068 8.17604 15.8863 8.29658L8.56242 15.6205Z" fill="#667085"/>
</svg>
